<svg width="512" height="512" viewBox="0 0 512 512" fill="none" xmlns="http://www.w3.org/2000/svg">
  <defs>
    <linearGradient id="bg-gradient" x1="0%" y1="0%" x2="100%" y2="100%">
      <stop offset="0%" stop-color="#f19132" />
      <stop offset="100%" stop-color="#df5d07" />
    </linearGradient>
  </defs>
  
  <rect x="32" y="32" width="448" height="448" rx="128" fill="url(#bg-gradient)" />
  
  <g transform="translate(128, 128) scale(10.6667)">
    <path
      stroke="white"
      stroke-width="2"
      stroke-linecap="round"
      stroke-linejoin="round"
      d="M12 6.042A8.967 8.967 0 006 3.75c-1.052 0-2.062.18-3 .512v14.25A8.987 8.987 0 016 18c2.305 0 4.408.867 6 2.292m0-14.25a8.966 8.966 0 016-2.292c1.052 0 2.062.18 3 .512v14.25A8.987 8.987 0 0018 18a8.967 8.967 0 00-6 2.292m0-14.25v14.25"
    />
  </g>
</svg>
